<?xml version="1.0" standalone="no"?>
<!DOCTYPE svg PUBLIC "-//W3C//DTD SVG 20010904//EN"
 "http://www.w3.org/TR/2001/REC-SVG-20010904/DTD/svg10.dtd">
<svg version="1.0" xmlns="http://www.w3.org/2000/svg"
 width="83.000000pt" height="150.000000pt" viewBox="0 0 83.000000 150.000000"
 preserveAspectRatio="xMidYMid meet">

<g transform="translate(0.000000,150.000000) scale(0.100000,-0.100000)"
fill="#000000" stroke="none">
<path d="M426 1442 c-3 -3 -6 -247 -6 -543 l0 -538 -42 24 c-24 14 -53 25 -66
25 -78 0 -168 -64 -190 -136 -23 -77 24 -148 111 -170 65 -15 172 45 198 113
7 19 10 209 9 595 l-1 566 42 -9 c61 -14 92 -33 136 -83 55 -62 133 -226 133
-279 0 -9 5 -17 10 -17 12 0 13 61 1 92 -5 13 -15 43 -22 68 -21 76 -57 133
-131 213 -39 41 -58 52 -112 67 -35 10 -67 16 -70 12z"/>
</g>
</svg>
