<?xml version="1.0" standalone="no"?>
<!DOCTYPE svg PUBLIC "-//W3C//DTD SVG 20010904//EN"
 "http://www.w3.org/TR/2001/REC-SVG-20010904/DTD/svg10.dtd">
<svg version="1.0" xmlns="http://www.w3.org/2000/svg"
 width="45.000000pt" height="61.000000pt" viewBox="0 0 45.000000 61.000000"
 preserveAspectRatio="xMidYMid meet">

<g transform="translate(0.000000,61.000000) scale(0.100000,-0.100000)"
fill="#000000" stroke="none">
<path d="M172 385 c-2 -82 -4 -187 -5 -233 -1 -45 2 -82 6 -82 5 0 44 35 87
78 l79 79 -17 34 c-22 43 -67 58 -111 36 l-30 -15 -4 126 -3 127 -2 -150z
m116 -111 c12 -8 22 -23 22 -32 0 -17 -108 -132 -123 -132 -10 0 -9 90 3 129
15 53 53 67 98 35z"/>
</g>
</svg>
