<svg id="svg" version="1.1" xmlns="http://www.w3.org/2000/svg" xmlns:xlink="http://www.w3.org/1999/xlink" width="400" height="774.3589743589744" viewBox="0, 0, 400,774.3589743589744"><g id="svgg"><path id="path0" d="M264.818 34.327 C 263.014 36.131,261.538 173.108,261.538 338.720 L 261.538 639.832 240.371 658.955 C 213.499 683.233,179.598 698.283,150.805 698.719 C 123.399 699.133,128.025 709.615,159.334 718.046 C 198.738 728.656,250.150 703.588,268.562 664.787 C 276.000 649.112,276.923 613.472,276.923 341.835 C 276.923 64.773,275.311 23.834,264.818 34.327 M161.538 572.624 C 125.264 591.747,107.581 618.014,107.893 652.309 L 108.094 674.359 114.808 658.974 C 130.553 622.900,181.419 589.673,228.205 584.900 L 258.974 581.761 242.562 572.932 C 222.148 561.949,182.075 561.797,161.538 572.624 " stroke="none" fill="#000000" fill-rule="evenodd"></path></g></svg>