<?xml version="1.0" standalone="no"?>
<!DOCTYPE svg PUBLIC "-//W3C//DTD SVG 20010904//EN"
 "http://www.w3.org/TR/2001/REC-SVG-20010904/DTD/svg10.dtd">
<svg version="1.0" xmlns="http://www.w3.org/2000/svg"
 width="78.000000pt" height="151.000000pt" viewBox="0 0 78.000000 151.000000"
 preserveAspectRatio="xMidYMid meet">

<g transform="translate(0.000000,151.000000) scale(0.100000,-0.100000)"
fill="#000000" stroke="none">
<path d="M522 862 l-2 -592 -40 -39 c-52 -51 -123 -84 -182 -85 -27 -1 -48 -2
-48 -3 0 -1 13 -9 30 -18 80 -42 199 2 236 86 19 42 19 69 14 644 l-6 600 -2
-593z"/>
<path d="M320 395 c-19 -9 -43 -24 -53 -33 -29 -26 -57 -87 -57 -123 l0 -31
33 48 c41 62 135 114 205 114 43 0 45 1 30 17 -24 23 -114 28 -158 8z"/>
</g>
</svg>
