<?xml version="1.0" standalone="no"?>
<!DOCTYPE svg PUBLIC "-//W3C//DTD SVG 20010904//EN"
 "http://www.w3.org/TR/2001/REC-SVG-20010904/DTD/svg10.dtd">
<svg version="1.0" xmlns="http://www.w3.org/2000/svg"
 width="43.000000pt" height="83.000000pt" viewBox="0 0 43.000000 83.000000"
 preserveAspectRatio="xMidYMid meet">
<metadata>
Created by potrace 1.16, written by Peter Selinger 2001-2019
</metadata>
<g transform="translate(0.000000,83.000000) scale(0.100000,-0.100000)"
fill="#000000" stroke="none">
<path d="M130 501 l0 -211 65 0 65 0 0 -95 c0 -58 4 -95 10 -95 7 0 9 71 8
208 l-3 207 -57 -3 -57 -4 -3 98 c-2 67 -7 99 -15 102 -10 3 -13 -43 -13 -207z
m130 -101 l0 -90 -50 0 -50 0 0 90 0 90 50 0 50 0 0 -90z"/>
</g>
</svg>
