<?xml version="1.0" standalone="no"?>
<!DOCTYPE svg PUBLIC "-//W3C//DTD SVG 20010904//EN"
 "http://www.w3.org/TR/2001/REC-SVG-20010904/DTD/svg10.dtd">
<svg version="1.0" xmlns="http://www.w3.org/2000/svg"
 width="68.000000pt" height="120.000000pt" viewBox="0 0 68.000000 120.000000"
 preserveAspectRatio="xMidYMid meet">

<g transform="translate(0.000000,120.000000) scale(0.100000,-0.100000)"
fill="#000000" stroke="none">
<path d="M170 1038 c0 -7 62 -75 137 -150 75 -76 135 -139 132 -142 -3 -3 -65
-36 -138 -73 -74 -37 -134 -72 -134 -78 0 -5 52 -37 116 -70 l117 -60 -76 -24
c-101 -31 -154 -79 -154 -139 0 -81 85 -141 235 -164 54 -8 78 -9 86 -1 17 17
1 33 -31 33 -49 0 -133 21 -182 46 -138 70 -62 180 142 206 57 8 80 15 80 25
0 8 -55 40 -129 76 -72 34 -130 65 -130 69 -1 5 58 37 130 73 72 36 129 70
127 75 -6 19 -302 310 -315 310 -7 0 -13 -6 -13 -12z"/>
</g>
</svg>
