<?xml version="1.0" standalone="no"?>
<!DOCTYPE svg PUBLIC "-//W3C//DTD SVG 20010904//EN"
 "http://www.w3.org/TR/2001/REC-SVG-20010904/DTD/svg10.dtd">
<svg version="1.0" xmlns="http://www.w3.org/2000/svg"
 width="56.000000pt" height="60.000000pt" viewBox="0 0 56.000000 60.000000"
 preserveAspectRatio="xMidYMid meet">

<g transform="translate(0.000000,60.000000) scale(0.100000,-0.100000)"
fill="#000000" stroke="none">
<path d="M310 445 l0 -85 -40 0 -40 0 -2 78 -2 77 -3 -75 c-4 -84 -15 -100
-70 -100 -18 0 -33 -5 -33 -11 0 -7 16 -9 50 -4 l50 7 0 -66 c0 -65 0 -66 -27
-66 -40 0 -73 -11 -73 -22 0 -7 19 -8 50 -4 l50 7 2 -58 2 -58 3 55 c4 59 20
80 60 80 21 0 23 -4 23 -55 0 -30 5 -55 10 -55 6 0 10 24 10 54 0 52 1 55 31
65 18 6 40 11 50 11 11 0 19 5 19 11 0 7 -10 9 -25 5 -14 -3 -36 -9 -50 -12
l-26 -6 3 68 3 69 40 3 c22 2 45 8 50 14 7 7 -6 9 -42 6 l-53 -5 0 78 c0 46
-4 79 -10 79 -6 0 -10 -35 -10 -85z m-2 -220 c-2 -2 -20 -6 -40 -10 l-38 -7 0
65 0 66 38 3 37 3 3 -59 c2 -32 2 -60 0 -61z"/>
</g>
</svg>
