<?xml version="1.0" standalone="no"?>
<!DOCTYPE svg PUBLIC "-//W3C//DTD SVG 20010904//EN"
 "http://www.w3.org/TR/2001/REC-SVG-20010904/DTD/svg10.dtd">
<svg version="1.0" xmlns="http://www.w3.org/2000/svg"
 width="74.000000pt" height="105.000000pt" viewBox="0 0 74.000000 105.000000"
 preserveAspectRatio="xMidYMid meet">

<g transform="translate(0.000000,105.000000) scale(0.100000,-0.100000)"
fill="#000000" stroke="none">
<path d="M290 860 c-27 -27 -25 -66 3 -94 33 -33 129 -44 182 -22 21 9 39 15
40 14 7 -8 -69 -246 -83 -262 -25 -27 -67 -46 -102 -46 -30 0 -31 1 -16 22 23
32 20 65 -9 93 -30 30 -54 31 -89 4 -47 -37 -31 -105 31 -123 36 -11 129 -9
153 4 12 6 24 10 26 7 2 -2 -20 -89 -50 -193 -49 -174 -56 -207 -40 -192 8 9
214 726 214 747 0 6 -18 -7 -40 -29 -33 -33 -47 -40 -80 -40 -37 0 -40 2 -30
19 16 30 12 76 -8 94 -25 23 -78 21 -102 -3z"/>
</g>
</svg>
